<?xml version="1.0"?><svg width="484.468" height="422.742" xmlns="http://www.w3.org/2000/svg">
 <metadata id="metadata4822">image/svg+xml</metadata>
 <g>
  <title>Layer 1</title>
  <g id="svg_3" opacity="0.95">
   <path id="svg_4" fill="#00007f" stroke="#000000" stroke-width="0" d="m200.634003,281.016998c0,0 0,0 0,0c0,0 0,0 0,0c0,0 0,0 0,0c0,0 0,0 0,0c0,0 0,0 0,0c0,0 0,0 0,0c0,0.001007 0,0.001007 -0.001007,0.001007c0.057007,0.14798 -0.195999,0.182983 -0.285995,0.265991c-3.117004,-4.815002 3.169006,-6.662994 8.061996,-7.567993c21.046005,-0.196991 29.429001,25.845001 29.246002,40.990997c-0.610001,50.561005 -53.257004,87.686005 -99.856995,103.421997l208.630981,-0.694c12.379028,-48.40799 -39.885986,-148.902985 -93.996979,-165.959c-18.229004,-5.746002 -50.078003,-5.070999 -57.177002,15.974991c-1.480011,4.387024 -1.210007,12.210022 4.798996,13.770996"/>
  </g>
 </g>
</svg>